HIERARCHY
ROOT Hips
{
	OFFSET 0.000000 0.000000 0.000000 
	CHANNELS 6 Xposition Yposition Zposition Yrotation Zrotation Xrotation 
	JOINT Lumbar
	{
		OFFSET 0.000000 0.000000 0.000000 
		CHANNELS 3 Zrotation Xrotation Yrotation
		JOINT Neck
		{
			OFFSET 0.000000 0.445665 0.000000 
			CHANNELS 3 Zrotation Xrotation Yrotation
			End Site
			{
				OFFSET 0.000000 0.227535 0.000000 
			}
		}
		JOINT RightShoulder
		{
			OFFSET 0.019635 0.377685 0.194865 
			CHANNELS 3 Zrotation Xrotation Yrotation
			JOINT RightElbow
			{
				OFFSET 0.000000 -0.243375 0.000000 
				CHANNELS 2 Zrotation Yrotation
				JOINT RightWrist
				{
					OFFSET 0.000000 -0.264825 0.000000 
					CHANNELS 2 Zrotation Xrotation
					End Site
					{
						OFFSET 0.006600 -0.176220 0.000990 
					}
				}
			}
		}
		JOINT LeftShoulder
		{
			OFFSET 0.019635 0.377685 -0.194865 
			CHANNELS 3 Zrotation Xrotation Yrotation
			JOINT LeftElbow
			{
				OFFSET 0.000000 -0.243375 0.000000 
				CHANNELS 2 Zrotation Yrotation
				JOINT LeftWrist
				{
					OFFSET 0.000000 -0.264825 0.000000 
					CHANNELS 2 Zrotation Xrotation
					End Site
					{
						OFFSET 0.006600 -0.176220 -0.000990 
					}
				}
			}
		}
	}
	JOINT RightHip
	{
		OFFSET 0.052140 -0.069960 0.075570 
		CHANNELS 3 Zrotation Xrotation Yrotation
		JOINT RightKnee
		{
			OFFSET 0.000000 -0.402270 0.000000 
			CHANNELS 1 Zrotation
			JOINT RightAnkle
			{
				OFFSET 0.000000 -0.404085 0.000000 
				CHANNELS 3 Zrotation Xrotation Yrotation
				End Site
				{
					OFFSET 0.204105 -0.089430 0.008415 
				}
			}
		}
	}
	JOINT LeftHip
	{
		OFFSET 0.052140 -0.069960 -0.075570 
		CHANNELS 3 Zrotation Xrotation Yrotation
		JOINT LeftKnee
		{
			OFFSET 0.000000 -0.402270 0.000000 
			CHANNELS 1 Zrotation
			JOINT LeftAnkle
			{
				OFFSET 0.000000 -0.404085 0.000000 
				CHANNELS 3 Zrotation Xrotation Yrotation
				End Site
				{
					OFFSET 0.204105 -0.089430 -0.008415 
				}
			}
		}
	}
}
MOTION
Frames: 33
Frame Time: 0.02
0.02495 -0.0329 0.06083 27.13246 -15.26073 -2.62284 41.88153 1.56038 -13.93387 -26.63991 -5.4824 -2.11986 20.50165 -67.01015 24.20858 106.86559 98.45166 18.74088 4.32752 -41.52793 28.29486 11.08488 78.91355 -92.8462 6.69073 -1.4657 39.0934 -5.5905 -16.91302 -41.18671 -6.23576 -2.85703 -3.60293 28.95744 15.05886 1.00489 -34.83654 -9.37832 2.82844 3.73824
0.02636 -0.0298 0.06422 27.31327 -15.41368 -2.61917 41.80563 1.57318 -13.90565 -26.51402 -5.31952 -2.11986 20.83555 -66.26722 23.30332 107.03009 98.63981 18.27616 3.77557 -41.51669 27.81251 11.05455 77.86586 -92.96776 6.84098 -1.45129 38.59488 -5.16434 -17.03868 -39.84457 -6.27876 -2.85931 -3.60771 29.1388 15.10153 0.48556 -34.37292 -9.70627 2.803 3.74339
0.02748 -0.027 0.06756 27.55014 -15.51228 -2.62921 41.64089 1.59097 -13.87739 -26.40009 -5.11402 -2.11986 20.7446 -65.38713 21.91221 107.27458 99.00671 17.8562 2.94623 -41.48461 27.33219 11.00095 76.82902 -93.21105 7.0668 -1.44356 38.06588 -4.70235 -17.04149 -38.51806 -6.3301 -2.87359 -3.61913 29.35402 15.10117 -0.17071 -34.01737 -10.04809 2.78416 3.75325
0.0287 -0.02408 0.07092 27.76019 -15.6389 -2.63406 41.51738 1.60743 -13.84641 -26.28441 -4.92108 -2.11986 20.8388 -64.5308 20.7195 107.4741 99.19274 17.35998 2.25712 -41.4628 26.84699 10.95284 75.77793 -93.36969 7.23498 -1.43107 37.56061 -4.253 -17.07683 -37.19093 -6.37932 -2.88454 -3.62858 29.56447 15.12443 -0.74283 -33.62466 -10.38043 2.76243 3.76077
0.03005 -0.02108 0.07432 27.97828 -15.75174 -2.63481 41.39022 1.61973 -13.8271 -26.1547 -4.75486 -2.11986 20.95777 -63.83728 19.61278 107.70992 99.78057 17.09752 1.50649 -41.43332 26.3785 10.92532 74.76605 -93.67627 7.50988 -1.42828 37.01409 -3.81817 -17.20716 -35.83629 -6.42191 -2.88704 -3.6339 29.73294 15.13389 -1.40423 -33.18449 -10.7272 2.73909 3.76863
0.03107 -0.01833 0.07761 28.19154 -15.88072 -2.647 41.25009 1.64217 -13.78221 -26.05577 -4.52477 -2.11986 20.92957 -62.77053 18.21698 107.88867 99.59075 16.36371 0.81867 -41.41662 25.87501 10.85001 73.67478 -93.70673 7.58121 -1.4088 36.54604 -3.34669 -17.11631 -34.54238 -6.47984 -2.90926 -3.64901 29.99643 15.1604 -1.90962 -32.86843 -11.04622 2.72116 3.7771
0.03126 -0.01622 0.08063 28.38385 -16.0621 -2.6905 41.08945 1.68876 -13.68166 -26.0474 -4.11437 -2.11986 20.57432 -60.72831 16.11875 107.89703 97.09139 14.26957 0.37389 -41.43964 25.28356 10.64434 72.36737 -92.7854 7.02198 -1.30397 36.30273 -2.76095 -16.38779 -33.41744 -6.58177 -2.98968 -3.69297 30.50592 15.24601 -1.9996 -32.85902 -11.29213 2.71586 3.78598
0.03113 -0.01436 0.08351 28.56805 -16.2624 -2.74449 40.91989 1.74579 -13.55272 -26.06788 -3.64365 -2.11986 20.09106 -58.31327 13.754 107.84449 93.82662 11.70965 0.002 -41.47735 24.65572 10.39192 70.97968 -91.60167 6.26241 -1.18673 36.13938 -2.14349 -15.45084 -32.35274 -6.69817 -3.08836 -3.74595 31.1107 15.34914 -1.92098 -32.97173 -11.50808 2.716 3.79537
0.03113 -0.01238 0.08643 28.75157 -16.4577 -2.79166 40.75865 1.79987 -13.42717 -26.06949 -3.21044 -2.11986 19.68357 -56.05275 11.52411 107.8149 90.99092 9.39207 -0.40432 -41.50885 24.038 10.164 69.62383 -90.64311 5.62592 -1.10106 35.93884 -1.55468 -14.647 -31.25651 -6.80552 -3.17428 -3.79255 31.67682 15.44329 -1.88711 -33.03469 -11.73341 2.71436 3.80477
0.03117 -0.01041 0.08947 28.95512 -16.63645 -2.84793 40.57656 1.84691 -13.34186 -26.09592 -2.73433 -2.11987 19.18719 -53.84294 9.209 107.80614 87.81786 6.94035 -0.8155 -41.53593 23.44539 9.92266 68.28391 -89.26135 4.85851 -0.91282 35.74042 -0.9045 -13.67869 -30.17616 -6.92357 -3.27926 -3.84894 32.22521 15.54186 -1.98766 -33.07847 -11.97792 2.71029 3.81352
0.03106 -0.00849 0.09222 29.11478 -16.85421 -2.88758 40.43661 1.91057 -13.16586 -26.07723 -2.33225 -2.11987 18.85072 -51.45009 7.0272 107.74088 85.16404 4.6647 -1.19479 -41.57806 22.79439 9.69705 66.8967 -88.67315 4.31336 -0.92694 35.5575 -0.37513 -13.00272 -29.07959 -7.02273 -3.34893 -3.88709 32.83192 15.63396 -1.77244 -33.18821 -12.17415 2.71212 3.82343
0.03062 -0.00661 0.09425 29.15073 -17.18099 -2.87862 40.41875 2.02148 -12.74758 -25.92804 -2.1632 -2.11987 18.99247 -48.56436 5.17316 107.51342 84.12565 2.92176 -1.50932 -41.64074 21.9692 9.53893 65.35559 -90.54765 4.44644 -1.57467 35.39384 -0.18694 -13.20528 -27.90087 -7.06562 -3.31487 -3.87175 33.58275 15.72088 -0.67412 -33.46233 -12.25317 2.73199 3.83848
0.03005 -0.00478 0.09597 29.14334 -17.54561 -2.85262 40.44361 2.14804 -12.23889 -25.73228 -2.06853 -2.11987 19.3005 -45.52331 3.48527 107.23452 83.63644 1.3845 -1.7917 -41.72144 21.09072 9.39615 63.77807 -93.19343 4.8072 -2.41409 35.24423 -0.12163 -13.70586 -26.70846 -7.08904 -3.24494 -3.83789 34.38763 15.79785 0.72723 -33.79532 -12.28298 2.75701 3.85428
0.02954 -0.00295 0.09781 29.15846 -17.88917 -2.83432 40.44682 2.26481 -11.77071 -25.55691 -1.93078 -2.11987 19.53131 -42.60483 1.79225 106.99289 82.89856 -0.20303 -2.08395 -41.80544 20.25085 9.23807 62.2448 -95.34563 5.05271 -3.11733 35.09053 -0.00039 -14.05756 -25.53635 -7.12179 -3.19245 -3.81305 35.16335 15.86825 1.95588 -34.09339 -12.32944 2.77756 3.86832
0.02899 -0.00103 0.09975 29.16148 -18.24934 -2.81619 40.45831 2.39309 -11.3036 -25.38541 -1.82944 -2.11987 19.76524 -39.45115 -0.21001 106.69144 82.13006 -1.98941 -2.39438 -41.84143 19.34847 9.11303 60.59002 -98.08035 5.3395 -4.02302 34.92857 0.12159 -14.45952 -24.3046 -7.15319 -3.13564 -3.78593 35.96171 15.98548 3.33724 -34.43212 -12.39877 2.80721 3.88831
0.0285 0.00069 0.1014 29.17952 -18.58408 -2.79401 40.46381 2.50117 -10.81364 -25.19491 -1.67151 -2.11987 20.03276 -36.75868 -1.52207 106.502 81.56593 -3.30642 -2.65956 -41.98151 18.56468 8.92401 59.1829 -99.80393 5.59887 -4.55807 34.78781 0.21245 -14.82922 -23.19596 -7.18239 -3.07925 -3.75912 36.72466 16.00331 4.47134 -34.69623 -12.40945 2.81917 3.89615
0.02816 0.00191 0.10241 29.24992 -18.83539 -2.76064 40.43376 2.54795 -10.27894 -24.95888 -1.3326 -2.11987 20.36251 -35.35194 -0.99407 106.64491 81.43374 -3.37785 -2.81328 -42.40376 18.11681 8.55038 58.45069 -98.41214 5.71063 -3.97625 34.68703 0.24684 -15.04776 -22.40548 -7.21182 -3.03132 -3.73686 37.37465 15.74281 4.83945 -34.75902 -12.2678 2.7801 3.86967
0.02788 0.00292 0.10313 29.33716 -19.06026 -2.72453 40.39771 2.57409 -9.72536 -24.70607 -0.93574 -2.11987 20.71849 -34.42153 0.22791 106.90084 81.49184 -2.98192 -2.92197 -42.92968 17.79112 8.11327 57.97272 -96.00168 5.79044 -3.02337 34.6093 0.25402 -15.22285 -21.74379 -7.23937 -2.98528 -3.71566 37.98695 15.38372 4.94944 -34.74063 -12.06946 2.72324 3.83108
0.02759 0.004 0.10396 29.41626 -19.30001 -2.69234 40.37031 2.6108 -9.18285 -24.46363 -0.56987 -2.11987 21.05726 -33.2918 1.15131 107.09827 81.46521 -2.79713 -3.04779 -43.40933 17.41271 7.70769 57.39046 -94.14833 5.89716 -2.2712 34.53084 0.27402 -15.41149 -21.03933 -7.26664 -2.93922 -3.69445 38.61739 15.07378 5.18236 -34.74604 -11.89878 2.67502 3.7984
0.02724 0.00518 0.10488 29.49494 -19.5298 -2.64815 40.32007 2.64325 -8.62604 -24.20778 -0.18661 -2.11987 21.42661 -32.08368 2.01341 107.32332 81.44939 -2.6096 -3.18609 -43.88833 17.02073 7.28959 56.75932 -91.92789 5.96152 -1.39109 34.41271 0.2882 -15.63555 -20.26783 -7.29791 -2.88823 -3.67058 39.24576 14.7451 5.401 -34.80823 -11.71823 2.62441 3.76394
0.02703 0.0061 0.10554 29.58025 -19.77256 -2.62866 40.31453 2.67923 -8.09646 -23.97676 0.17475 -2.11987 21.73317 -31.15445 3.16079 107.51922 81.44979 -2.32087 -3.28867 -44.39023 16.68652 6.88444 56.29093 -90.21544 6.10091 -0.6858 34.3813 0.30916 -15.77292 -19.66677 -7.32078 -2.84859 -3.65279 39.86843 14.43225 5.58564 -34.73292 -11.54558 2.57475 3.73042
0.02718 0.00636 0.10557 29.66987 -20.06562 -2.6772 40.44136 2.73186 -7.64096 -23.81601 0.46501 -2.11987 21.88688 -30.87694 4.96921 107.60017 81.44198 -1.85453 -3.2987 -44.95405 16.48478 6.5118 56.21041 -90.1918 6.47754 -0.56221 34.59344 0.36005 -15.66958 -19.50467 -7.31983 -2.83847 -3.6512 40.48681 14.18638 5.72485 -34.29049 -11.40737 2.52962 3.70117
0.02747 0.00635 0.10534 29.76759 -20.37083 -2.75095 40.61169 2.78835 -7.21507 -23.68147 0.73087 -2.11987 21.97095 -30.86493 7.03155 107.64947 81.44247 -1.30571 -3.27516 -45.53279 16.33705 6.15744 56.28548 -90.70382 6.92558 -0.62487 34.88999 0.41842 -15.48128 -19.50981 -7.31076 -2.8401 -3.65583 41.09986 13.96003 5.84008 -33.71379 -11.27953 2.4864 3.67348
0.02768 0.00646 0.1052 29.86838 -20.66517 -2.81381 40.75712 2.84179 -6.77977 -23.53676 1.00605 -2.11987 22.06803 -30.73327 8.94908 107.71797 81.44067 -0.80397 -3.27067 -46.08881 16.16259 5.80745 56.28844 -90.94256 7.32513 -0.59592 35.14163 0.47108 -15.33818 -19.43852 -7.30621 -2.83743 -3.65795 41.71384 13.7254 5.97422 -33.20275 -11.14801 2.44396 3.64597
0.02796 0.00657 0.10515 29.94148 -20.98168 -2.87419 40.92441 2.89996 -6.32649 -23.3842 1.29096 -2.11987 22.24355 -30.61347 11.01671 107.76992 81.43954 -0.24564 -3.24957 -46.71566 16.00019 5.40332 56.30409 -91.2722 7.79114 -0.58354 35.42236 0.5327 -15.16578 -19.37332 -7.2981 -2.83054 -3.65882 42.33361 13.48496 6.06521 -32.66836 -11.01017 2.3943 3.61447
0.02813 0.00663 0.10486 30.07363 -21.25463 -2.94574 41.05609 2.94951 -5.9182 -23.25429 1.54872 -2.11987 22.24037 -30.52631 12.82094 107.84751 81.4365 0.20876 -3.25445 -47.19728 15.82563 5.11513 56.32953 -91.55296 8.1364 -0.5857 35.66144 0.57751 -15.03498 -19.3337 -7.29546 -2.83505 -3.6637 42.93959 13.26237 6.24434 -32.15298 -10.88862 2.35993 3.59158
0.02798 0.00665 0.10401 30.36932 -21.40991 -3.04245 41.08345 2.97399 -5.62513 -23.18193 1.74023 -2.11987 21.74754 -30.45832 13.84828 108.00135 81.42385 0.34884 -3.35068 -47.27258 15.58924 5.16051 56.32102 -91.57124 8.12773 -0.58402 35.77222 0.57708 -15.03729 -19.3214 -7.31052 -2.86953 -3.67861 43.51718 13.08618 6.66734 -31.7129 -10.81074 2.37104 3.5941
0.02772 0.00665 0.10292 30.72323 -21.52029 -3.14954 41.07302 2.98985 -5.37676 -23.13128 1.90444 -2.11987 21.08015 -30.41269 14.59548 108.1816 81.40838 0.38012 -3.47268 -47.201 15.34095 5.31913 56.32008 -91.52644 7.99587 -0.59215 35.83701 0.55914 -15.08481 -19.32896 -7.33125 -2.91483 -3.69726 44.07979 12.92736 7.18146 -31.29892 -10.74898 2.39692 3.60497
0.02752 0.00665 0.10191 31.0493 -21.64734 -3.2515 41.07636 3.00996 -5.10916 -23.06982 2.07914 -2.11987 20.50046 -30.35842 15.45974 108.35112 81.39477 0.46391 -3.5752 -47.19721 15.10732 5.41427 56.32935 -91.51299 7.92239 -0.59655 35.91753 0.54731 -15.11379 -19.32823 -7.349 -2.95431 -3.7139 44.64386 12.75989 7.65957 -30.8799 -10.67927 2.41359 3.61073
0.0273 0.00666 0.10101 31.3831 -21.78945 -3.35578 41.09399 3.02873 -4.83797 -23.01324 2.26127 -2.11987 19.88069 -30.30753 16.3784 108.51566 81.37931 0.53924 -3.70783 -47.1896 14.8365 5.55993 56.28627 -91.50539 7.84088 -0.60394 36.02154 0.54325 -15.13232 -19.32996 -7.36821 -2.99803 -3.73204 45.22997 12.59645 8.11672 -30.42707 -10.61236 2.44061 3.62194
0.02709 0.00666 0.09981 31.71252 -21.89075 -3.45775 41.07433 3.04829 -4.58453 -22.95131 2.42157 -2.11987 19.30679 -30.25112 17.11153 108.69545 81.36668 0.60359 -3.78615 -47.1549 14.6397 5.62804 56.35234 -91.46487 7.7464 -0.6053 36.06623 0.51911 -15.18318 -19.32954 -7.3858 -3.03532 -3.74787 45.76709 12.42826 8.63594 -30.05298 -10.54352 2.44987 3.62392
0.02691 0.00669 0.09789 32.03206 -21.87802 -3.54738 40.94298 3.07123 -4.36893 -22.86925 2.52948 -2.11987 18.8779 -30.17393 17.41833 108.92627 81.36412 0.6772 -3.69235 -47.08049 14.64908 5.44563 56.71309 -91.33873 7.64186 -0.58516 35.94332 0.44046 -15.324 -19.31346 -7.39767 -3.05209 -3.75642 46.168 12.24483 9.33566 -29.88754 -10.46384 2.40391 3.59698
0.02675 0.00672 0.09566 32.34175 -21.82767 -3.63481 40.77831 3.09533 -4.16973 -22.78094 2.61609 -2.11987 18.50643 -30.08879 17.54366 109.16876 81.36418 0.74079 -3.54588 -46.9839 14.73328 5.18279 57.18302 -91.18119 7.52901 -0.55825 35.76425 0.34273 -15.4942 -19.29455 -7.40771 -3.06195 -3.76247 46.52023 12.05563 10.08916 -29.80143 -10.38193 2.34003 3.56072
